<mxfile host="app.diagrams.net" modified="2023-11-15T12:04:53.894Z" agent="Mozilla/5.0 (Macintosh; Intel Mac OS X 10_15_7) AppleWebKit/605.1.15 (KHTML, like Gecko) Version/15.6.1 Safari/605.1.15" etag="zjnFBJ2PBYHU2abF1f6B" version="22.1.1" type="github">
  <diagram id="C5RBs43oDa-KdzZeNtuy" name="Page-1">
    <mxGraphModel dx="1306" dy="783" grid="1" gridSize="10" guides="1" tooltips="1" connect="1" arrows="1" fold="1" page="1" pageScale="1" pageWidth="827" pageHeight="1169" math="0" shadow="0">
      <root>
        <mxCell id="WIyWlLk6GJQsqaUBKTNV-0" />
        <mxCell id="WIyWlLk6GJQsqaUBKTNV-1" parent="WIyWlLk6GJQsqaUBKTNV-0" />
        <mxCell id="jeDVsQNEvuGPXVq24bs--2" value="" style="edgeStyle=orthogonalEdgeStyle;rounded=0;orthogonalLoop=1;jettySize=auto;html=1;" edge="1" parent="WIyWlLk6GJQsqaUBKTNV-1" source="jeDVsQNEvuGPXVq24bs--0" target="jeDVsQNEvuGPXVq24bs--1">
          <mxGeometry relative="1" as="geometry" />
        </mxCell>
        <mxCell id="jeDVsQNEvuGPXVq24bs--4" value="" style="edgeStyle=orthogonalEdgeStyle;rounded=0;orthogonalLoop=1;jettySize=auto;html=1;" edge="1" parent="WIyWlLk6GJQsqaUBKTNV-1" source="jeDVsQNEvuGPXVq24bs--0" target="jeDVsQNEvuGPXVq24bs--3">
          <mxGeometry relative="1" as="geometry" />
        </mxCell>
        <mxCell id="jeDVsQNEvuGPXVq24bs--0" value="登录/注册" style="rounded=1;whiteSpace=wrap;html=1;" vertex="1" parent="WIyWlLk6GJQsqaUBKTNV-1">
          <mxGeometry x="70" y="450" width="120" height="60" as="geometry" />
        </mxCell>
        <mxCell id="jeDVsQNEvuGPXVq24bs--9" style="edgeStyle=orthogonalEdgeStyle;rounded=0;orthogonalLoop=1;jettySize=auto;html=1;exitX=1;exitY=0.5;exitDx=0;exitDy=0;entryX=0;entryY=0.5;entryDx=0;entryDy=0;" edge="1" parent="WIyWlLk6GJQsqaUBKTNV-1" source="jeDVsQNEvuGPXVq24bs--1" target="jeDVsQNEvuGPXVq24bs--5">
          <mxGeometry relative="1" as="geometry" />
        </mxCell>
        <mxCell id="jeDVsQNEvuGPXVq24bs--12" style="edgeStyle=orthogonalEdgeStyle;rounded=0;orthogonalLoop=1;jettySize=auto;html=1;exitX=1;exitY=0.5;exitDx=0;exitDy=0;entryX=0;entryY=0.5;entryDx=0;entryDy=0;" edge="1" parent="WIyWlLk6GJQsqaUBKTNV-1" source="jeDVsQNEvuGPXVq24bs--1" target="jeDVsQNEvuGPXVq24bs--10">
          <mxGeometry relative="1" as="geometry" />
        </mxCell>
        <mxCell id="jeDVsQNEvuGPXVq24bs--15" style="edgeStyle=orthogonalEdgeStyle;rounded=0;orthogonalLoop=1;jettySize=auto;html=1;exitX=1;exitY=0.5;exitDx=0;exitDy=0;entryX=0;entryY=0.5;entryDx=0;entryDy=0;" edge="1" parent="WIyWlLk6GJQsqaUBKTNV-1" source="jeDVsQNEvuGPXVq24bs--1" target="jeDVsQNEvuGPXVq24bs--13">
          <mxGeometry relative="1" as="geometry" />
        </mxCell>
        <mxCell id="jeDVsQNEvuGPXVq24bs--19" style="edgeStyle=orthogonalEdgeStyle;rounded=0;orthogonalLoop=1;jettySize=auto;html=1;exitX=1;exitY=0.5;exitDx=0;exitDy=0;entryX=0;entryY=0.5;entryDx=0;entryDy=0;" edge="1" parent="WIyWlLk6GJQsqaUBKTNV-1" source="jeDVsQNEvuGPXVq24bs--1" target="jeDVsQNEvuGPXVq24bs--16">
          <mxGeometry relative="1" as="geometry" />
        </mxCell>
        <mxCell id="jeDVsQNEvuGPXVq24bs--21" style="edgeStyle=orthogonalEdgeStyle;rounded=0;orthogonalLoop=1;jettySize=auto;html=1;exitX=1;exitY=0.5;exitDx=0;exitDy=0;entryX=0;entryY=0.5;entryDx=0;entryDy=0;" edge="1" parent="WIyWlLk6GJQsqaUBKTNV-1" source="jeDVsQNEvuGPXVq24bs--1" target="jeDVsQNEvuGPXVq24bs--7">
          <mxGeometry relative="1" as="geometry" />
        </mxCell>
        <mxCell id="jeDVsQNEvuGPXVq24bs--1" value="用户角色" style="rounded=1;whiteSpace=wrap;html=1;" vertex="1" parent="WIyWlLk6GJQsqaUBKTNV-1">
          <mxGeometry x="230" y="250" width="120" height="60" as="geometry" />
        </mxCell>
        <mxCell id="jeDVsQNEvuGPXVq24bs--26" style="edgeStyle=orthogonalEdgeStyle;rounded=0;orthogonalLoop=1;jettySize=auto;html=1;exitX=1;exitY=0.5;exitDx=0;exitDy=0;entryX=0;entryY=0.5;entryDx=0;entryDy=0;" edge="1" parent="WIyWlLk6GJQsqaUBKTNV-1" source="jeDVsQNEvuGPXVq24bs--3" target="jeDVsQNEvuGPXVq24bs--22">
          <mxGeometry relative="1" as="geometry" />
        </mxCell>
        <mxCell id="jeDVsQNEvuGPXVq24bs--27" style="edgeStyle=orthogonalEdgeStyle;rounded=0;orthogonalLoop=1;jettySize=auto;html=1;exitX=1;exitY=0.5;exitDx=0;exitDy=0;entryX=0;entryY=0.5;entryDx=0;entryDy=0;" edge="1" parent="WIyWlLk6GJQsqaUBKTNV-1" source="jeDVsQNEvuGPXVq24bs--3" target="jeDVsQNEvuGPXVq24bs--24">
          <mxGeometry relative="1" as="geometry" />
        </mxCell>
        <mxCell id="jeDVsQNEvuGPXVq24bs--3" value="后台管理角色" style="rounded=1;whiteSpace=wrap;html=1;" vertex="1" parent="WIyWlLk6GJQsqaUBKTNV-1">
          <mxGeometry x="230" y="670" width="120" height="60" as="geometry" />
        </mxCell>
        <mxCell id="jeDVsQNEvuGPXVq24bs--5" value="出租租赁企业分布" style="rounded=1;whiteSpace=wrap;html=1;" vertex="1" parent="WIyWlLk6GJQsqaUBKTNV-1">
          <mxGeometry x="534" y="30" width="120" height="60" as="geometry" />
        </mxCell>
        <mxCell id="jeDVsQNEvuGPXVq24bs--7" value="租赁企业名单" style="rounded=1;whiteSpace=wrap;html=1;" vertex="1" parent="WIyWlLk6GJQsqaUBKTNV-1">
          <mxGeometry x="534" y="140" width="120" height="60" as="geometry" />
        </mxCell>
        <mxCell id="jeDVsQNEvuGPXVq24bs--13" value="保前租赁公司风险评估" style="rounded=1;whiteSpace=wrap;html=1;" vertex="1" parent="WIyWlLk6GJQsqaUBKTNV-1">
          <mxGeometry x="534" y="360" width="120" height="60" as="geometry" />
        </mxCell>
        <mxCell id="jeDVsQNEvuGPXVq24bs--16" value="个人账号信息" style="rounded=1;whiteSpace=wrap;html=1;" vertex="1" parent="WIyWlLk6GJQsqaUBKTNV-1">
          <mxGeometry x="534" y="470" width="120" height="60" as="geometry" />
        </mxCell>
        <mxCell id="jeDVsQNEvuGPXVq24bs--20" value="" style="edgeStyle=orthogonalEdgeStyle;rounded=0;orthogonalLoop=1;jettySize=auto;html=1;" edge="1" parent="WIyWlLk6GJQsqaUBKTNV-1" source="jeDVsQNEvuGPXVq24bs--1" target="jeDVsQNEvuGPXVq24bs--10">
          <mxGeometry relative="1" as="geometry">
            <mxPoint x="350" y="280" as="sourcePoint" />
            <mxPoint x="594" y="180" as="targetPoint" />
          </mxGeometry>
        </mxCell>
        <mxCell id="jeDVsQNEvuGPXVq24bs--10" value="企业所属车险到期名单" style="rounded=1;whiteSpace=wrap;html=1;" vertex="1" parent="WIyWlLk6GJQsqaUBKTNV-1">
          <mxGeometry x="534" y="250" width="120" height="60" as="geometry" />
        </mxCell>
        <mxCell id="jeDVsQNEvuGPXVq24bs--22" value="用户账号管理" style="rounded=1;whiteSpace=wrap;html=1;" vertex="1" parent="WIyWlLk6GJQsqaUBKTNV-1">
          <mxGeometry x="534" y="570" width="120" height="60" as="geometry" />
        </mxCell>
        <mxCell id="jeDVsQNEvuGPXVq24bs--24" value="个人账号信息" style="rounded=1;whiteSpace=wrap;html=1;" vertex="1" parent="WIyWlLk6GJQsqaUBKTNV-1">
          <mxGeometry x="534" y="750" width="120" height="60" as="geometry" />
        </mxCell>
      </root>
    </mxGraphModel>
  </diagram>
</mxfile>
